<svg width="223" height="43" viewBox="0 0 223 43" fill="none" xmlns="http://www.w3.org/2000/svg">
<g clip-path="url(#clip0_52_5229)">
<path d="M111.32 0H0V43H111.32V0Z" fill="#F09643"/>
<path d="M223 0H111.32V43H223V0Z" fill="white"/>
<path d="M15.9201 26.6884C16.1071 26.4196 16.2717 26.0986 16.4587 25.8299C16.6458 25.5611 16.9375 25.4715 17.1695 25.6656C17.2966 25.7701 18.8976 27.1139 20.4986 27.1139C21.935 27.1139 22.8477 26.233 22.8477 25.1655C22.8477 23.9113 21.7629 23.1125 19.7056 22.254C17.5809 21.3507 15.9201 20.2458 15.9201 17.8122C15.9201 16.1773 17.1695 13.9377 20.4761 13.9377C22.5559 13.9377 24.1195 15.0276 24.329 15.1694C24.4936 15.274 24.6581 15.5651 24.4562 15.8786C24.2916 16.1325 24.1045 16.4236 23.9325 16.6774C23.7679 16.9462 23.4986 17.0731 23.2068 16.8865C23.0646 16.8043 21.6058 15.8413 20.4013 15.8413C18.6507 15.8413 18.0522 16.9536 18.0522 17.7226C18.0522 18.917 18.9649 19.6486 20.6931 20.3578C23.1095 21.3432 25.1669 22.4929 25.1669 25.046C25.1669 27.2259 23.2292 29.0026 20.5285 29.0026C17.9924 29.0026 16.3914 27.6589 16.0547 27.3453C15.8677 27.1811 15.7256 27.0318 15.9276 26.6734L15.9201 26.6884Z" fill="white"/>
<path d="M34.2266 16.237H30.7254C30.486 16.237 30.314 16.0503 30.314 15.8488V14.7066C30.314 14.505 30.486 14.3184 30.7254 14.3184H39.9572C40.1966 14.3184 40.3687 14.505 40.3687 14.7066V15.8488C40.3687 16.0503 40.1966 16.237 39.9572 16.237H36.456V28.2411C36.456 28.4427 36.2615 28.6293 36.0446 28.6293H34.6306C34.4137 28.6293 34.2192 28.4427 34.2192 28.2411V16.237H34.2266Z" fill="white"/>
<path d="M52.5408 13.9526C56.7228 13.9526 60.0669 17.312 60.0669 21.4925C60.0669 25.6731 56.7228 28.9877 52.5408 28.9877C48.3588 28.9877 45.0371 25.6656 45.0371 21.4925C45.0371 17.3194 48.3588 13.9526 52.5408 13.9526ZM52.5408 26.9049C55.5333 26.9049 57.9796 24.4786 57.9796 21.4925C57.9796 18.5064 55.5333 16.0429 52.5408 16.0429C49.5483 16.0429 47.1244 18.5288 47.1244 21.4925C47.1244 24.4563 49.5707 26.9049 52.5408 26.9049Z" fill="white"/>
<path d="M66.9492 14.3259C66.9492 14.1094 67.1362 13.9377 67.3457 13.9377H67.8694L76.9815 24.6653H77.004V14.5573C77.004 14.3408 77.1686 14.1542 77.4005 14.1542H78.7471C78.9566 14.1542 79.1436 14.3483 79.1436 14.5573V28.9429C79.1436 29.1594 78.9566 29.3311 78.7471 29.3311H78.201L69.0888 18.3049H69.0664V28.7115C69.0664 28.928 68.9018 29.1146 68.6699 29.1146H67.3457C67.1362 29.1146 66.9492 28.9205 66.9492 28.7115V14.3333V14.3259Z" fill="white"/>
<path d="M87.0513 14.6842C87.0513 14.4752 87.2233 14.2885 87.4553 14.2885H96.0212C96.2532 14.2885 96.4252 14.4752 96.4252 14.6842V15.8488C96.4252 16.0578 96.2532 16.2444 96.0212 16.2444H89.2507V20.4773H94.9664C95.1833 20.4773 95.3704 20.6639 95.3704 20.8729V22.0375C95.3704 22.2689 95.1759 22.4332 94.9664 22.4332H89.2507V26.8899H96.0212C96.2532 26.8899 96.4252 27.0766 96.4252 27.2856V28.4278C96.4252 28.6368 96.2532 28.8234 96.0212 28.8234H87.4553C87.2233 28.8234 87.0513 28.6368 87.0513 28.4278V14.6917V14.6842Z" fill="white"/>
<path d="M142.031 13.9227C144.043 13.9227 145.696 14.6618 147.118 15.8786C147.282 16.0503 147.305 16.2967 147.14 16.4684C146.826 16.8043 146.512 17.1179 146.198 17.4538C146.033 17.6405 145.861 17.6255 145.652 17.4314C144.664 16.5655 143.37 15.9981 142.09 15.9981C139.113 15.9981 136.831 18.5214 136.831 21.4701C136.831 24.4189 139.113 26.9198 142.09 26.9198C143.826 26.9198 145.023 26.2852 145.233 26.2031V23.8441H143.183C142.951 23.8441 142.786 23.6724 142.786 23.4634V22.2391C142.786 22.0076 142.951 21.8359 143.183 21.8359H146.998C147.208 21.8359 147.372 22.0226 147.372 22.2391C147.372 23.9262 147.395 25.6507 147.395 27.3304C147.395 27.4349 147.312 27.6066 147.23 27.6663C147.23 27.6663 145.076 29.0549 142.038 29.0549C137.871 29.0549 134.497 25.7104 134.497 21.5C134.497 17.2896 137.871 13.9003 142.038 13.9003L142.031 13.9227Z" fill="#1C60D6"/>
<path d="M160.682 13.878C164.871 13.878 168.223 17.2597 168.223 21.4552C168.223 25.6507 164.871 28.9951 160.682 28.9951C156.492 28.9951 153.163 25.6582 153.163 21.4552C153.163 17.2523 156.492 13.878 160.682 13.878ZM160.682 26.8974C163.674 26.8974 166.128 24.4637 166.128 21.4552C166.128 18.4467 163.674 15.9757 160.682 15.9757C157.689 15.9757 155.258 18.4766 155.258 21.4552C155.258 24.4339 157.712 26.8974 160.682 26.8974Z" fill="#1C60D6"/>
<path d="M175.375 14.7141C175.375 14.5125 175.547 14.3259 175.779 14.3259H184.3C184.532 14.3259 184.704 14.5125 184.704 14.7141V15.8637C184.704 16.0653 184.532 16.2519 184.3 16.2519H177.574V20.9924H183.26C183.469 20.9924 183.664 21.179 183.664 21.3806V22.5078C183.664 22.7094 183.469 22.896 183.26 22.896H177.574V28.2934C177.574 28.495 177.379 28.6816 177.17 28.6816H175.786C175.554 28.6816 175.382 28.495 175.382 28.2934V14.7066L175.375 14.7141Z" fill="#1C60D6"/>
<path d="M191.22 14.7141C191.22 14.5125 191.392 14.3259 191.624 14.3259H200.145C200.377 14.3259 200.549 14.5125 200.549 14.7141V15.8637C200.549 16.0653 200.377 16.2519 200.145 16.2519H193.419V20.9924H199.105C199.314 20.9924 199.509 21.179 199.509 21.3806V22.5078C199.509 22.7094 199.314 22.896 199.105 22.896H193.419V28.2934C193.419 28.495 193.225 28.6816 193.015 28.6816H191.631C191.399 28.6816 191.227 28.495 191.227 28.2934V14.7066L191.22 14.7141Z" fill="#1C60D6"/>
</g>
<defs>
<clipPath id="clip0_52_5229">
<rect width="223" height="43" fill="white"/>
</clipPath>
</defs>
</svg>
