<svg width="16" height="16" viewBox="0 0 16 16" fill="none" xmlns="http://www.w3.org/2000/svg">
<g clip-path="url(#clip0_63_8218)">
<path d="M15.8045 14.862L11.8252 10.8827C12.9096 9.5564 13.4428 7.86406 13.3144 6.15571C13.1861 4.44735 12.406 2.85369 11.1356 1.70435C9.86516 0.555007 8.20158 -0.0620722 6.48895 -0.019251C4.77632 0.0235702 3.14566 0.723015 1.93426 1.93441C0.72287 3.1458 0.0234252 4.77646 -0.019396 6.48909C-0.0622172 8.20173 0.554862 9.8653 1.7042 11.1357C2.85354 12.4061 4.44721 13.1862 6.15556 13.3146C7.86392 13.4429 9.55625 12.9097 10.8825 11.8253L14.8619 15.8047C14.9876 15.9261 15.156 15.9933 15.3308 15.9918C15.5056 15.9903 15.6728 15.9202 15.7964 15.7965C15.92 15.6729 15.9901 15.5057 15.9916 15.3309C15.9932 15.1561 15.926 14.9877 15.8045 14.862ZM6.66652 12C5.61169 12 4.58054 11.6872 3.70348 11.1012C2.82642 10.5151 2.14283 9.68218 1.73916 8.70764C1.3355 7.73311 1.22988 6.66075 1.43567 5.62618C1.64145 4.59162 2.14941 3.64131 2.89529 2.89543C3.64117 2.14955 4.59147 1.6416 5.62604 1.43581C6.6606 1.23002 7.73296 1.33564 8.7075 1.73931C9.68204 2.14298 10.515 2.82656 11.101 3.70362C11.6871 4.58069 11.9999 5.61183 11.9999 6.66667C11.9983 8.08067 11.4359 9.4363 10.436 10.4361C9.43615 11.436 8.08052 11.9984 6.66652 12Z" fill="#1D63DC"/>
</g>
<defs>
<clipPath id="clip0_63_8218">
<rect width="16" height="16" fill="white"/>
</clipPath>
</defs>
</svg>
