<svg width="30" height="30" viewBox="0 0 30 30" fill="none" xmlns="http://www.w3.org/2000/svg">
<g id="calculator-money" clip-path="url(#clip0_59_6905)">
<path id="Vector" d="M17.5 21.25H25V23.75H17.5V21.25ZM17.5 16.25V18.75H20V16.25H17.5ZM25 5H10V8.94875C10.895 9.09 11.7338 9.30375 12.5 9.5875V7.5H22.5V10H13.4587C14.765 10.635 15.8063 11.4862 16.505 12.5H25V5ZM26.25 0H8.75C6.67875 0 5 1.67875 5 3.75V8.94875C5.7925 8.82375 6.625 8.75 7.5 8.75V3.75C7.5 3.06 8.06 2.5 8.75 2.5H26.25C26.94 2.5 27.5 3.06 27.5 3.75V27.5H17.1562C16.8088 28.44 16.2062 29.285 15.385 30H30V3.75C30 1.67875 28.3212 0 26.25 0ZM25 16.25H22.5V18.75H25V16.25ZM15 15.625V25.625C15 28.1187 11.7762 30 7.5 30C3.22375 30 0 28.1187 0 25.625V15.625C0 13.1313 3.22375 11.25 7.5 11.25C11.7762 11.25 15 13.1313 15 15.625ZM12.5 25.625V23.94C11.1925 24.6063 9.45625 25 7.5 25C5.54375 25 3.8075 24.6063 2.5 23.94V25.625C2.5 26.2862 4.39875 27.5 7.5 27.5C10.6012 27.5 12.5 26.2862 12.5 25.625ZM12.5 20.625V18.94C11.1925 19.6063 9.45625 20 7.5 20C5.54375 20 3.8075 19.6063 2.5 18.94V20.625C2.5 21.2862 4.39875 22.5 7.5 22.5C10.6012 22.5 12.5 21.2862 12.5 20.625ZM12.5 15.625C12.5 14.9637 10.6012 13.75 7.5 13.75C4.39875 13.75 2.5 14.9637 2.5 15.625C2.5 16.2862 4.39875 17.5 7.5 17.5C10.6012 17.5 12.5 16.2862 12.5 15.625Z" fill="white"/>
</g>
<defs>
<clipPath id="clip0_59_6905">
<rect width="30" height="30" fill="white"/>
</clipPath>
</defs>
</svg>
