<svg width="30" height="30" viewBox="0 0 30 30" fill="none" xmlns="http://www.w3.org/2000/svg">
<g id="chart-pie-alt" clip-path="url(#clip0_59_6902)">
<path id="Vector" d="M23.3911 15H17.4998C16.8368 15 16.2009 14.7366 15.7321 14.2678C15.2632 13.7989 14.9998 13.163 14.9998 12.5V6.59249C15.0015 6.01747 14.871 5.44976 14.6182 4.93325C14.3655 4.41674 13.9974 3.96527 13.5423 3.61374C13.1111 3.27226 12.6072 3.03446 12.0695 2.91872C11.5317 2.80299 10.9746 2.8124 10.4411 2.94624C7.41064 3.69851 4.72774 5.46257 2.83604 7.9467C0.944342 10.4308 -0.0428311 13.4862 0.0377757 16.6076C0.118382 19.7289 1.26194 22.7293 3.27933 25.1125C5.29672 27.4957 8.06711 29.1189 11.1323 29.7137C14.5787 30.3734 18.1469 29.6905 21.1061 27.8049C24.0654 25.9193 26.1918 22.9737 27.0498 19.5712C27.1842 19.037 27.194 18.4791 27.0784 17.9405C26.9629 17.4019 26.7252 16.8971 26.3836 16.465C26.0279 16.0106 25.5738 15.6427 25.0555 15.3889C24.5372 15.1352 23.9682 15.0022 23.3911 15ZM24.6261 18.96C24.1475 20.8873 23.1655 22.6529 21.7807 24.0763C20.3958 25.4996 18.6577 26.5295 16.7442 27.0607C14.8307 27.5919 12.8105 27.6053 10.8901 27.0996C8.96969 26.5938 7.2181 25.5871 5.81446 24.1823C4.41082 22.7775 3.40551 21.025 2.90135 19.1042C2.39719 17.1834 2.41228 15.1632 2.94507 13.2501C3.47786 11.3371 4.50924 9.59985 5.9337 8.21617C7.35817 6.83249 9.1246 5.852 11.0523 5.37499C11.2172 5.33379 11.3895 5.33178 11.5554 5.36911C11.7212 5.40645 11.876 5.48209 12.0073 5.58999C12.1624 5.70825 12.2882 5.86065 12.3749 6.03537C12.4616 6.21009 12.5069 6.40244 12.5073 6.59749V12.5C12.5073 13.8261 13.0341 15.0978 13.9718 16.0355C14.9095 16.9732 16.1812 17.5 17.5073 17.5H23.3973C23.5941 17.5008 23.7881 17.5462 23.9648 17.6328C24.1414 17.7194 24.2962 17.845 24.4173 18C24.5236 18.1332 24.5976 18.2891 24.6336 18.4557C24.6696 18.6222 24.6678 18.7948 24.6261 18.96Z" fill="white"/>
<path id="Vector_2" d="M29.5634 9.30749C28.9879 7.19183 27.87 5.26312 26.3202 3.71221C24.7704 2.16131 22.8424 1.04198 20.7272 0.464991C20.5054 0.405378 20.2768 0.375119 20.0472 0.374991C19.7169 0.371853 19.3892 0.434201 19.0832 0.558432C18.7771 0.682663 18.4987 0.866314 18.264 1.09877C18.0294 1.33123 17.8431 1.60789 17.716 1.91276C17.5889 2.21764 17.5234 2.54468 17.5234 2.87499V8.74999C17.5234 9.74455 17.9185 10.6984 18.6218 11.4016C19.325 12.1049 20.2789 12.5 21.2734 12.5H27.1722C27.558 12.4963 27.9378 12.4037 28.282 12.2293C28.6263 12.055 28.9257 11.8037 29.157 11.4948C29.3883 11.186 29.5453 10.828 29.6158 10.4487C29.6863 10.0693 29.6684 9.6788 29.5634 9.30749ZM26.4409 9.99999H21.2684C20.9369 9.99999 20.619 9.86829 20.3846 9.63387C20.1501 9.39945 20.0184 9.08151 20.0184 8.74999L20.0084 2.88374C20.0176 2.87712 20.0284 2.87323 20.0397 2.87249H20.0722C21.7748 3.33635 23.326 4.23863 24.571 5.48929C25.8159 6.73996 26.7111 8.29526 27.1672 9.99999H26.4409Z" fill="white"/>
</g>
<defs>
<clipPath id="clip0_59_6902">
<rect width="30" height="30" fill="white"/>
</clipPath>
</defs>
</svg>
