<svg width="40" height="40" viewBox="0 0 40 40" fill="none" xmlns="http://www.w3.org/2000/svg">
<g id="chart-pie-simple-circle-dollar" clip-path="url(#clip0_80_9117)">
<path id="Vector" d="M39.9999 15V16.6667H23.3333V0H24.9999C33.2699 0 39.9999 6.73 39.9999 15ZM36.5483 13.3333C35.8149 8.23167 31.7683 4.185 26.6666 3.45167V13.3333H36.5483Z" fill="#F09643"/>
<path id="Vector_2" d="M30 26.6667C30 27.2967 30.4517 27.83 31.0733 27.9334L36.1433 28.7784C38.3783 29.15 40.0017 31.0667 40.0017 33.3334C40.0017 36.09 37.7583 38.3334 35.0017 38.3334V40H31.6683V38.3334C28.9117 38.3334 26.6683 36.09 26.6683 33.3334H30.0017C30.0017 34.2517 30.75 35 31.6683 35H35.0017C35.92 35 36.6683 34.2517 36.6683 33.3334C36.6683 32.7034 36.2167 32.17 35.595 32.0667L30.525 31.2217C28.29 30.85 26.6667 28.9334 26.6667 26.6667C26.6667 23.91 28.91 21.6667 31.6667 21.6667V20H35V21.6667C37.7567 21.6667 40 23.91 40 26.6667H36.6667C36.6667 25.7484 35.9183 25 35 25H31.6667C30.7483 25 30 25.7484 30 26.6667ZM24.04 23.3334C24.6267 21.9984 25.5617 20.8617 26.7183 20H20V3.33337H18.3333C8.225 3.33337 0 11.5584 0 21.6667C0 31.775 8.225 40 18.3333 40C20.7933 40 23.1367 39.505 25.2817 38.6234C24.5683 37.7634 24.03 36.7667 23.7067 35.6667C22.0367 36.31 20.2267 36.6667 18.3333 36.6667C10.0633 36.6667 3.33333 29.9367 3.33333 21.6667C3.33333 13.9584 9.17667 7.59004 16.6667 6.75837V23.3334H24.04Z" fill="#282929"/>
</g>
<defs>
<clipPath id="clip0_80_9117">
<rect width="40" height="40" fill="white"/>
</clipPath>
</defs>
</svg>
