<svg width="70" height="70" viewBox="0 0 70 70" fill="none" xmlns="http://www.w3.org/2000/svg">
<circle opacity="0.2" cx="35" cy="35" r="35" fill="url(#paint0_linear_86_14834)"/>
<g clip-path="url(#clip0_86_14834)">
<path d="M39.875 49.875C39.5 49.875 39.125 50 38.75 50H23.75C21.625 50 20 48.375 20 46.25V22.5H26.5C27 21 28.375 20 30 20H32.5C34.125 20 35.5 21 36 22.5H42.5V32.5H40V25H33.75V23.75C33.75 23 33.25 22.5 32.5 22.5H30C29.25 22.5 28.75 23 28.75 23.75V25H22.5V46.25C22.5 47 23 47.5 23.75 47.5H38C38.375 48.375 39 49.25 39.875 49.875ZM47.125 41.625L43.375 41C42.875 40.875 42.5 40.5 42.5 40C42.5 39.25 43 38.75 43.75 38.75H46.25C47 38.75 47.5 39.25 47.5 40H50C50 37.875 48.375 36.25 46.25 36.25V35H43.75V36.25C41.625 36.25 40 37.875 40 40C40 41.75 41.25 43.125 42.875 43.375L46.625 44C47.125 44.125 47.375 44.5 47.375 45C47.375 45.75 46.875 46.25 46.125 46.25H43.625C42.875 46.25 42.375 45.75 42.375 45H39.875C39.875 47.125 41.5 48.75 43.625 48.75V50H46.125V48.75C48.25 48.75 49.875 47.125 49.875 45C50 43.25 48.75 41.875 47.125 41.625ZM30.75 27.875L32.5 29.625L29 33.125C28.625 33.5 28.125 33.75 27.625 33.75C27.125 33.75 26.625 33.5 26.25 33.125L24.125 31.125L25.875 29.375L27.625 31.125C27.625 31 30.75 27.875 30.75 27.875ZM30.75 35.375L32.5 37.125L29 40.625C28.625 41 28.125 41.25 27.625 41.25C27.125 41.25 26.625 41 26.25 40.625L24.25 38.625L26 36.875L27.75 38.625C27.625 38.5 30.75 35.375 30.75 35.375Z" fill="#1D63DC"/>
</g>
<defs>
<linearGradient id="paint0_linear_86_14834" x1="35" y1="0" x2="35" y2="70" gradientUnits="userSpaceOnUse">
<stop stop-color="#1D63DC"/>
<stop offset="1" stop-color="#1CCAB8" stop-opacity="0"/>
</linearGradient>
<clipPath id="clip0_86_14834">
<rect width="30" height="30" fill="white" transform="translate(20 20)"/>
</clipPath>
</defs>
</svg>
