<svg width="30" height="30" viewBox="0 0 30 30" fill="none" xmlns="http://www.w3.org/2000/svg">
<path d="M17.5 12.5C17.5 13.7738 17.115 14.955 16.46 15.9425L12.8663 12.3487C12.6313 12.1137 12.5 11.7963 12.5 11.465V6.37625C15.3525 6.955 17.5 9.47625 17.5 12.5ZM10 11.9825V6.37625C6.8125 7.02375 4.505 10.0963 5.09125 13.585C5.4975 16.0025 7.36625 18.0138 9.7525 18.575C11.59 19.0063 13.3275 18.6162 14.6925 17.7113L10.7312 13.75C10.2625 13.2812 10 12.645 10 11.9825ZM23.75 6.25H21.25C20.5588 6.25 20 6.81 20 7.5C20 8.19 20.5588 8.75 21.25 8.75H23.75C24.4412 8.75 25 8.19 25 7.5C25 6.81 24.4412 6.25 23.75 6.25ZM23.75 11.25H21.25C20.5588 11.25 20 11.81 20 12.5C20 13.19 20.5588 13.75 21.25 13.75H23.75C24.4412 13.75 25 13.19 25 12.5C25 11.81 24.4412 11.25 23.75 11.25ZM23.75 16.25H21.25C20.5588 16.25 20 16.81 20 17.5C20 18.19 20.5588 18.75 21.25 18.75H23.75C24.4412 18.75 25 18.19 25 17.5C25 16.81 24.4412 16.25 23.75 16.25ZM30 7.5V17.5C30 20.9463 27.1963 23.75 23.75 23.75H16.25V26.25H21.25C21.9412 26.25 22.5 26.81 22.5 27.5C22.5 28.19 21.9412 28.75 21.25 28.75H8.75C8.05875 28.75 7.5 28.19 7.5 27.5C7.5 26.81 8.05875 26.25 8.75 26.25H13.75V23.75H6.25C2.80375 23.75 0 20.9463 0 17.5V7.5C0 4.05375 2.80375 1.25 6.25 1.25H23.75C27.1963 1.25 30 4.05375 30 7.5ZM27.5 7.5C27.5 5.4325 25.8175 3.75 23.75 3.75H6.25C4.1825 3.75 2.5 5.4325 2.5 7.5V17.5C2.5 19.5675 4.1825 21.25 6.25 21.25H23.75C25.8175 21.25 27.5 19.5675 27.5 17.5V7.5Z" fill="white"/>
</svg>
