<svg width="20" height="21" viewBox="0 0 20 21" fill="none" xmlns="http://www.w3.org/2000/svg">
<g clip-path="url(#clip0_86_14780)">
<path d="M15.8333 1.33331H4.16667C3.062 1.33464 2.00296 1.77405 1.22185 2.55516C0.440735 3.33628 0.00132321 4.39532 0 5.49998L0 15.5C0.00132321 16.6046 0.440735 17.6637 1.22185 18.4448C2.00296 19.2259 3.062 19.6653 4.16667 19.6666H15.8333C16.938 19.6653 17.997 19.2259 18.7782 18.4448C19.5593 17.6637 19.9987 16.6046 20 15.5V5.49998C19.9987 4.39532 19.5593 3.33628 18.7782 2.55516C17.997 1.77405 16.938 1.33464 15.8333 1.33331ZM4.16667 2.99998H15.8333C16.3323 3.00096 16.8196 3.15124 17.2325 3.43148C17.6453 3.71172 17.9649 4.1091 18.15 4.57248L11.7683 10.955C11.2987 11.4227 10.6628 11.6854 10 11.6854C9.33715 11.6854 8.70131 11.4227 8.23167 10.955L1.85 4.57248C2.03512 4.1091 2.35468 3.71172 2.76754 3.43148C3.1804 3.15124 3.66768 3.00096 4.16667 2.99998ZM15.8333 18H4.16667C3.50363 18 2.86774 17.7366 2.3989 17.2677C1.93006 16.7989 1.66667 16.163 1.66667 15.5V6.74998L7.05333 12.1333C7.83552 12.9135 8.89521 13.3517 10 13.3517C11.1048 13.3517 12.1645 12.9135 12.9467 12.1333L18.3333 6.74998V15.5C18.3333 16.163 18.0699 16.7989 17.6011 17.2677C17.1323 17.7366 16.4964 18 15.8333 18Z" fill="#1D63DC"/>
</g>
<defs>
<clipPath id="clip0_86_14780">
<rect width="20" height="20" fill="white" transform="translate(0 0.5)"/>
</clipPath>
</defs>
</svg>
