<svg width="40" height="40" viewBox="0 0 40 40" fill="none" xmlns="http://www.w3.org/2000/svg">
<g id="file-invoice-dollar" clip-path="url(#clip0_80_9124)">
<path id="Vector" d="M23.5017 25C23.7551 23.7617 24.3051 22.64 25.0417 21.6667H8.33342V33.3333H23.3334V30H11.6667V25H23.5017ZM8.33342 18.3333H16.6667V15H8.33342V18.3333ZM16.6667 8.33333H8.33342V11.6667H16.6667V8.33333ZM26.7184 40H1.66675V5C1.66675 2.24333 3.91008 0 6.66675 0H22.3567L35.0001 12.6433V16.6667H31.6667V15H20.0001V3.33333H6.66675C5.74841 3.33333 5.00008 4.08167 5.00008 5V36.6667H24.0401C24.6267 38.0017 25.5617 39.1383 26.7184 40ZM23.3334 11.6667H29.3101L23.3334 5.69V11.6667Z" fill="#282929"/>
<path id="Vector_2" d="M40.0001 33.3333C40.0001 36.09 37.7567 38.3333 35.0001 38.3333V40H31.6667V38.3333C28.9101 38.3333 26.6667 36.09 26.6667 33.3333H30.0001C30.0001 34.2517 30.7467 35 31.6667 35H35.0001C35.9201 35 36.6667 34.2517 36.6667 33.3333C36.6667 32.7033 36.2151 32.17 35.5934 32.0667L30.5251 31.2217C28.2884 30.85 26.6667 28.9333 26.6667 26.6667C26.6667 23.91 28.9101 21.6667 31.6667 21.6667V20H35.0001V21.6667C37.7567 21.6667 40.0001 23.91 40.0001 26.6667H36.6667C36.6667 25.7483 35.9201 25 35.0001 25H31.6667C30.7467 25 30.0001 25.7483 30.0001 26.6667C30.0001 27.2967 30.4517 27.83 31.0734 27.9333L36.1417 28.7783C38.3784 29.15 40.0001 31.0667 40.0001 33.3333Z" fill="#1D63DC"/>
</g>
<defs>
<clipPath id="clip0_80_9124">
<rect width="40" height="40" fill="white"/>
</clipPath>
</defs>
</svg>
