<svg width="20" height="21" viewBox="0 0 20 21" fill="none" xmlns="http://www.w3.org/2000/svg">
<g id="region-pin" clip-path="url(#clip0_2057_60)">
<path id="Vector" d="M8.75 5.08833C8.75 4.39833 9.31 3.83833 10 3.83833C10.69 3.83833 11.25 4.39833 11.25 5.08833C11.25 5.77833 10.69 6.33833 10 6.33833C9.31 6.33833 8.75 5.77833 8.75 5.08833ZM6.79083 8.355C5.89667 7.4625 5.41667 6.30833 5.41667 5.08333C5.41667 3.85833 5.89333 2.7075 6.76 1.8425C7.625 0.976667 8.77583 0.5 10 0.5C11.2242 0.5 12.375 0.976667 13.24 1.8425C14.1067 2.7075 14.5833 3.85833 14.5833 5.08333C14.5833 6.30833 14.1067 7.45917 13.24 8.32417L10 11.3317L6.79083 8.355ZM7.08333 5.08333C7.08333 5.86333 7.39 6.5975 7.94667 7.15417L10 9.0575L12.0842 7.12333C12.6125 6.59417 12.9167 5.8625 12.9167 5.08333C12.9167 4.30417 12.6133 3.5725 12.0625 3.02083C11.5117 2.47 10.78 2.16667 10.0008 2.16667C9.22167 2.16667 8.49 2.47 7.93917 3.02083C7.3875 3.57167 7.08417 4.30333 7.08417 5.08333H7.08333ZM20 19.25V20.5H0L0.0108333 19.1175L1.86833 7.6025C2.03417 6.57583 2.8 5.79333 3.77417 5.57083C3.81833 6.1325 3.93917 6.67833 4.13167 7.20333C3.81667 7.28333 3.5675 7.5325 3.51333 7.8675L3.29 9.25417L8.65417 14.0225L16.8767 10.285L16.4867 7.8675C16.4333 7.53417 16.1867 7.28667 15.875 7.20417C16.0633 6.68167 16.1833 6.13417 16.2267 5.57C17.2008 5.7925 17.9667 6.575 18.1325 7.60167L20 19.25ZM1.745 18.8333H11.5583L2.975 11.2042L1.74417 18.8333H1.745ZM18.255 18.8333L17.1508 11.99L10.0158 15.2333L14.0658 18.8333H18.255Z" fill="#1CCAB8"/>
</g>
<defs>
<clipPath id="clip0_2057_60">
<rect width="20" height="20" fill="white" transform="translate(0 0.5)"/>
</clipPath>
</defs>
</svg>
