<svg width="25" height="26" viewBox="0 0 25 26" fill="none" xmlns="http://www.w3.org/2000/svg">
<g clip-path="url(#clip0_57_5592)">
<mask id="mask0_57_5592" style="mask-type:luminance" maskUnits="userSpaceOnUse" x="0" y="1" width="25" height="25">
<path d="M23.9896 11.1474H12.7738V15.7979H19.2297C18.6279 18.7523 16.1112 20.4483 12.7738 20.4483C8.83457 20.4483 5.66132 17.2751 5.66132 13.3359C5.66132 9.39664 8.83457 6.22339 12.7738 6.22339C14.4698 6.22339 16.0017 6.82523 17.2054 7.81003L20.7069 4.3085C18.5732 2.44831 15.8376 1.29938 12.7738 1.29938C6.09901 1.29938 0.737305 6.66108 0.737305 13.3359C0.737305 20.0106 6.09901 25.3723 12.7738 25.3723C18.792 25.3723 24.2631 20.9954 24.2631 13.3359C24.2631 12.6246 24.1537 11.8586 23.9896 11.1474Z" fill="white"/>
</mask>
<g mask="url(#mask0_57_5592)">
<path d="M-0.356934 20.4483V6.22339L8.94398 13.3358L-0.356934 20.4483Z" fill="#FBBC05"/>
</g>
<mask id="mask1_57_5592" style="mask-type:luminance" maskUnits="userSpaceOnUse" x="0" y="1" width="25" height="25">
<path d="M23.9896 11.1474H12.7738V15.7979H19.2297C18.6279 18.7523 16.1112 20.4483 12.7738 20.4483C8.83457 20.4483 5.66132 17.2751 5.66132 13.3359C5.66132 9.39664 8.83457 6.22339 12.7738 6.22339C14.4698 6.22339 16.0017 6.82523 17.2054 7.81003L20.7069 4.3085C18.5732 2.44831 15.8376 1.29938 12.7738 1.29938C6.09901 1.29938 0.737305 6.66108 0.737305 13.3359C0.737305 20.0106 6.09901 25.3723 12.7738 25.3723C18.792 25.3723 24.2631 20.9954 24.2631 13.3359C24.2631 12.6246 24.1537 11.8586 23.9896 11.1474Z" fill="white"/>
</mask>
<g mask="url(#mask1_57_5592)">
<path d="M-0.356934 6.22338L8.94398 13.3358L12.7738 9.99846L25.9045 7.86471V0.205139H-0.356934V6.22338Z" fill="#EA4335"/>
</g>
<mask id="mask2_57_5592" style="mask-type:luminance" maskUnits="userSpaceOnUse" x="0" y="1" width="25" height="25">
<path d="M23.9896 11.1474H12.7738V15.7979H19.2297C18.6279 18.7523 16.1112 20.4483 12.7738 20.4483C8.83457 20.4483 5.66132 17.2751 5.66132 13.3359C5.66132 9.39664 8.83457 6.22339 12.7738 6.22339C14.4698 6.22339 16.0017 6.82523 17.2054 7.81003L20.7069 4.3085C18.5732 2.44831 15.8376 1.29938 12.7738 1.29938C6.09901 1.29938 0.737305 6.66108 0.737305 13.3359C0.737305 20.0106 6.09901 25.3723 12.7738 25.3723C18.792 25.3723 24.2631 20.9954 24.2631 13.3359C24.2631 12.6246 24.1537 11.8586 23.9896 11.1474Z" fill="white"/>
</mask>
<g mask="url(#mask2_57_5592)">
<path d="M-0.356934 20.4483L16.0564 7.86471L20.3786 8.41183L25.9045 0.205139V26.4665H-0.356934V20.4483Z" fill="#34A853"/>
</g>
<mask id="mask3_57_5592" style="mask-type:luminance" maskUnits="userSpaceOnUse" x="0" y="1" width="25" height="25">
<path d="M23.9886 11.1474H12.7728V15.7979H19.2287C18.6269 18.7523 16.1102 20.4483 12.7728 20.4483C8.83359 20.4483 5.66034 17.2751 5.66034 13.3359C5.66034 9.39664 8.83359 6.22339 12.7728 6.22339C14.4689 6.22339 16.0008 6.82523 17.2044 7.81003L20.7059 4.3085C18.5722 2.44831 15.8366 1.29938 12.7728 1.29938C6.09803 1.29938 0.736328 6.66108 0.736328 13.3359C0.736328 20.0106 6.09803 25.3723 12.7728 25.3723C18.791 25.3723 24.2622 20.9954 24.2622 13.3359C24.2622 12.6246 24.1527 11.8586 23.9886 11.1474Z" fill="white"/>
</mask>
<g mask="url(#mask3_57_5592)">
<path d="M25.9033 26.4665L8.94284 13.3359L6.75439 11.6945L25.9033 6.22339V26.4665Z" fill="#4285F4"/>
</g>
</g>
<defs>
<clipPath id="clip0_57_5592">
<rect width="24" height="25" fill="white" transform="translate(0.5 0.5)"/>
</clipPath>
</defs>
</svg>
