<svg width="16" height="16" viewBox="0 0 16 16" fill="none" xmlns="http://www.w3.org/2000/svg">
<g id="category-alt 1" clip-path="url(#clip0_84_9438)">
<path id="Vector" d="M12.6667 0H3.33333C1.49533 0 0 1.49533 0 3.33333V12.6667C0 14.5047 1.49533 16 3.33333 16H12.6667C14.5047 16 16 14.5047 16 12.6667V3.33333C16 1.49533 14.5047 0 12.6667 0ZM14.6667 12.6667C14.6667 13.7693 13.7693 14.6667 12.6667 14.6667H3.33333C2.23067 14.6667 1.33333 13.7693 1.33333 12.6667V3.33333C1.33333 2.23067 2.23067 1.33333 3.33333 1.33333H12.6667C13.7693 1.33333 14.6667 2.23067 14.6667 3.33333V12.6667ZM6.33333 2.66667H3.66667C3.11533 2.66667 2.66667 3.11533 2.66667 3.66667V6.33333C2.66667 6.88467 3.11533 7.33333 3.66667 7.33333H6.33333C6.88467 7.33333 7.33333 6.88467 7.33333 6.33333V3.66667C7.33333 3.11533 6.88467 2.66667 6.33333 2.66667ZM6 6H4V4H6V6ZM12.3333 2.66667H9.66667C9.11533 2.66667 8.66667 3.11533 8.66667 3.66667V6.33333C8.66667 6.88467 9.11533 7.33333 9.66667 7.33333H12.3333C12.8847 7.33333 13.3333 6.88467 13.3333 6.33333V3.66667C13.3333 3.11533 12.8847 2.66667 12.3333 2.66667ZM12 6H10V4H12V6ZM6.33333 8.66667H3.66667C3.11533 8.66667 2.66667 9.11533 2.66667 9.66667V12.3333C2.66667 12.8847 3.11533 13.3333 3.66667 13.3333H6.33333C6.88467 13.3333 7.33333 12.8847 7.33333 12.3333V9.66667C7.33333 9.11533 6.88467 8.66667 6.33333 8.66667ZM6 12H4V10H6V12ZM12.3333 8.66667H9.66667C9.11533 8.66667 8.66667 9.11533 8.66667 9.66667V12.3333C8.66667 12.8847 9.11533 13.3333 9.66667 13.3333H12.3333C12.8847 13.3333 13.3333 12.8847 13.3333 12.3333V9.66667C13.3333 9.11533 12.8847 8.66667 12.3333 8.66667ZM12 12H10V10H12V12Z" fill="#1D63DC"/>
</g>
<defs>
<clipPath id="clip0_84_9438">
<rect width="16" height="16" fill="white"/>
</clipPath>
</defs>
</svg>
