<svg width="70" height="70" viewBox="0 0 70 70" fill="none" xmlns="http://www.w3.org/2000/svg">
<circle opacity="0.2" cx="35" cy="35" r="35" fill="url(#paint0_linear_86_14873)"/>
<g clip-path="url(#clip0_86_14873)">
<path d="M40 33.7825V23.75H42.5V31.25C41.3237 31.9987 40.625 32.74 40 33.7825ZM47.1062 40.335L43.305 39.7013C42.8387 39.6237 42.5 39.2238 42.5 38.7513C42.5 38.0625 43.06 37.5013 43.75 37.5013H46.25C46.94 37.5013 47.5 38.0625 47.5 38.7513H50C50 36.6838 48.3175 35.0013 46.25 35.0013V32.5013H43.75V35.0013C41.6825 35.0013 40 36.6838 40 38.7513C40 40.4513 41.2175 41.8887 42.8938 42.1675L46.695 42.8012C47.1613 42.8787 47.5 43.2787 47.5 43.7512C47.5 44.44 46.94 45.0012 46.25 45.0012H43.75C43.06 45.0012 42.5 44.44 42.5 43.7512H40C40 45.8187 41.6825 47.5012 43.75 47.5012V50.0012H46.25V47.5012C48.3175 47.5012 50 45.8187 50 43.7512C50 42.0512 48.7825 40.6138 47.1062 40.335ZM27.5 50.0012H30V31.2513H27.5V50.0012ZM21.25 50.0012H23.75V35.0013H21.25V50.0012ZM33.75 50.0012H36.25V27.5H33.75V50.0012ZM48.75 20H46.25V30H48.75V20Z" fill="#1CCAB8"/>
</g>
<defs>
<linearGradient id="paint0_linear_86_14873" x1="35" y1="0" x2="35" y2="70" gradientUnits="userSpaceOnUse">
<stop stop-color="#1CCAB8"/>
<stop offset="1" stop-color="#1CCAB8" stop-opacity="0"/>
</linearGradient>
<clipPath id="clip0_86_14873">
<rect width="30" height="30" fill="white" transform="translate(20 20)"/>
</clipPath>
</defs>
</svg>
