<svg width="70" height="70" viewBox="0 0 70 70" fill="none" xmlns="http://www.w3.org/2000/svg">
<circle opacity="0.2" cx="35" cy="35" r="35" fill="url(#paint0_linear_86_14882)"/>
<g clip-path="url(#clip0_86_14882)">
<path d="M48.4614 38.75C42.0764 38.75 38.3539 41.4738 36.2502 44.0312V39.9125C41.1752 39.2938 45.0002 35.0887 45.0002 29.9987C45.0002 24.4863 40.5139 20 35.0002 20C29.4864 20 25.0002 24.4863 25.0002 30C25.0002 35.09 28.8252 39.295 33.7502 39.9137V44.0287C31.6477 41.4712 27.9302 38.75 21.5552 38.75H20.0352L20.3277 40.24C21.8627 48.0525 29.4727 50.0312 34.0652 50.0312C34.3952 50.0312 34.7052 50.0188 35.0002 49.9988C35.2952 50.0188 35.6052 50.0312 35.9352 50.0312C40.5327 50.0312 48.1514 48.0525 49.6877 40.2413L49.9802 38.75H48.4614ZM27.5002 30C27.5002 25.8637 30.8639 22.5 35.0002 22.5C39.1364 22.5 42.5002 25.8637 42.5002 30C42.5002 34.1362 39.1364 37.5 35.0002 37.5C30.8639 37.5 27.5002 34.1362 27.5002 30ZM23.2189 41.3237C29.2877 41.8725 32.0239 45.3825 33.1327 47.49C30.3377 47.3125 25.0714 46.2987 23.2189 41.3237ZM36.8714 47.485C37.9827 45.3763 40.7227 41.8725 46.7952 41.3237C44.9414 46.2762 39.6702 47.2988 36.8714 47.485ZM34.0002 36.2513V34.7512H33.7502C32.2489 34.7512 31.0139 33.595 30.8864 32.1263H32.9114C33.0189 32.4875 33.3539 32.7513 33.7502 32.7513H36.4077C36.8027 32.7513 37.1252 32.43 37.1252 32.0337C37.1252 31.6937 36.8827 31.3975 36.5477 31.33L33.0589 30.6313C31.7927 30.3775 30.8752 29.2575 30.8752 27.9675C30.8752 26.4688 32.0939 25.2513 33.5914 25.2513H34.0002V23.7512H36.0002V25.2513H36.2502C37.7514 25.2513 38.9864 26.4075 39.1139 27.8763H37.0889C36.9814 27.515 36.6464 27.2513 36.2502 27.2513H33.5914C33.1964 27.2513 32.8752 27.5725 32.8752 27.9688C32.8752 28.3088 33.1177 28.605 33.4514 28.6712L36.9414 29.37C38.2077 29.6225 39.1252 30.7437 39.1252 32.0337C39.1252 33.5325 37.9064 34.75 36.4077 34.75H36.0002V36.25H34.0002V36.2513Z" fill="#F09643"/>
</g>
<defs>
<linearGradient id="paint0_linear_86_14882" x1="35" y1="0" x2="35" y2="70" gradientUnits="userSpaceOnUse">
<stop stop-color="#F09643"/>
<stop offset="1" stop-color="#F09643" stop-opacity="0"/>
</linearGradient>
<clipPath id="clip0_86_14882">
<rect width="30" height="30" fill="white" transform="translate(20 20)"/>
</clipPath>
</defs>
</svg>
