<svg width="20" height="21" viewBox="0 0 20 21" fill="none" xmlns="http://www.w3.org/2000/svg">
<g clip-path="url(#clip0_2057_46)">
<path d="M2.5 18.8133C2.27899 18.8133 2.06702 18.7255 1.91074 18.5693C1.75446 18.413 1.66667 18.201 1.66667 17.98V0.5H0V17.98C0 18.643 0.263392 19.2789 0.732233 19.7478C1.20107 20.2166 1.83696 20.48 2.5 20.48H20V18.8133H2.5Z" fill="#1D63DC"/>
<path d="M5.83366 10.5H4.16699V16.3333H5.83366V10.5Z" fill="#1D63DC"/>
<path d="M9.99967 8.83337H8.33301V16.3334H9.99967V8.83337Z" fill="#1D63DC"/>
<path d="M14.1667 11.3334H12.5V16.3334H14.1667V11.3334Z" fill="#1D63DC"/>
<path d="M18.3337 8H16.667V16.3333H18.3337V8Z" fill="#1D63DC"/>
<path d="M9.16697 4.17831L13.3336 8.34497L19.7561 1.92247L18.5778 0.744141L13.3336 5.98831L9.16697 1.82164L4.41113 6.57747L5.58947 7.75581L9.16697 4.17831Z" fill="#1D63DC"/>
</g>
<defs>
<clipPath id="clip0_2057_46">
<rect width="20" height="20" fill="white" transform="translate(0 0.5)"/>
</clipPath>
</defs>
</svg>
