<svg width="60" height="60" viewBox="0 0 60 60" fill="none" xmlns="http://www.w3.org/2000/svg">
<circle cx="30" cy="30" r="29.25" stroke="#F09643" stroke-width="1.5"/>
<g clip-path="url(#clip0_80_9260)">
<path d="M35.0059 22H28.0196C27.4686 22 27.0215 22.4471 27.0215 22.9981C27.0215 23.549 27.4686 23.9961 28.0196 23.9961H34.5927L22.3237 36.2651C21.9334 36.6554 21.9334 37.2861 22.3237 37.6764C22.5183 37.871 22.7738 37.9688 23.0293 37.9688C23.2848 37.9688 23.5403 37.871 23.7349 37.6764L36.004 25.4073V31.9805C36.004 32.5314 36.4511 32.9786 37.002 32.9786C37.5529 32.9786 38.0001 32.5314 38.0001 31.9805V24.9942C38.0001 23.3434 36.6567 22 35.0059 22Z" fill="#F09643"/>
</g>
<defs>
<clipPath id="clip0_80_9260">
<rect width="16" height="16" fill="white" transform="translate(22 22)"/>
</clipPath>
</defs>
</svg>
