<svg width="30" height="30" viewBox="0 0 30 30" fill="none" xmlns="http://www.w3.org/2000/svg">
<g clip-path="url(#clip0_59_6900)">
<path d="M26.25 13.75H20C17.9325 13.75 16.25 15.4325 16.25 17.5V26.25C16.25 28.3175 17.9325 30 20 30H26.25C28.3175 30 30 28.3175 30 26.25V17.5C30 15.4325 28.3175 13.75 26.25 13.75ZM27.5 26.25C27.5 26.9387 26.94 27.5 26.25 27.5H20C19.31 27.5 18.75 26.9387 18.75 26.25V17.5C18.75 16.8113 19.31 16.25 20 16.25H26.25C26.94 16.25 27.5 16.8113 27.5 17.5V26.25ZM26.25 19.9963C26.25 20.6862 25.6912 21.2463 25 21.2463H21.25C20.5588 21.2463 20 20.6862 20 19.9963C20 19.3062 20.5588 18.7463 21.25 18.7463H25C25.6912 18.7463 26.25 19.3062 26.25 19.9963ZM26.25 23.75C26.25 24.44 25.6912 25 25 25H21.25C20.5588 25 20 24.44 20 23.75C20 23.06 20.5588 22.5 21.25 22.5H25C25.6912 22.5 26.25 23.06 26.25 23.75ZM11.25 15C15.3862 15 18.75 11.6362 18.75 7.5C18.75 3.36375 15.3862 0 11.25 0C7.11375 0 3.75 3.36375 3.75 7.5C3.75 11.6362 7.11375 15 11.25 15ZM11.25 2.5C14.0075 2.5 16.25 4.7425 16.25 7.5C16.25 10.2575 14.0075 12.5 11.25 12.5C8.4925 12.5 6.25 10.2575 6.25 7.5C6.25 4.7425 8.4925 2.5 11.25 2.5ZM13.75 18.75C13.75 19.44 13.1912 20 12.5 20H11.25C6.42625 20 2.5 23.925 2.5 28.75C2.5 29.44 1.94125 30 1.25 30C0.55875 30 0 29.44 0 28.75C0 22.5475 5.04625 17.5 11.25 17.5H12.5C13.1912 17.5 13.75 18.06 13.75 18.75Z" fill="white"/>
</g>
<defs>
<clipPath id="clip0_59_6900">
<rect width="30" height="30" fill="white"/>
</clipPath>
</defs>
</svg>
