<svg width="20" height="21" viewBox="0 0 20 21" fill="none" xmlns="http://www.w3.org/2000/svg">
<g clip-path="url(#clip0_86_14782)">
<path d="M11.8335 14.0508C9.40716 13.0235 7.47771 11.0896 6.456 8.66083L9.28933 5.8225L4.07266 0.601667L1.43016 3.24333C0.97183 3.70429 0.609452 4.25155 0.363996 4.85346C0.118539 5.45537 -0.00512351 6.09999 0.000162584 6.75C0.000162584 12.79 7.71016 20.5 13.7502 20.5C14.4001 20.5057 15.0447 20.3822 15.6465 20.1367C16.2484 19.8912 16.7954 19.5286 17.256 19.07L19.8985 16.4275L14.6777 11.2067L11.8335 14.0508ZM16.0768 17.8917C15.7708 18.195 15.4075 18.4345 15.0081 18.5962C14.6086 18.7578 14.181 18.8385 13.7502 18.8333C8.55599 18.8333 1.66683 11.9442 1.66683 6.75C1.66192 6.31903 1.74263 5.89137 1.90428 5.49183C2.06593 5.09229 2.30529 4.72882 2.6085 4.4225L4.07266 2.95833L6.93683 5.8225L4.491 8.26833L4.69516 8.78C5.2962 10.3878 6.2358 11.8475 7.45029 13.0605C8.66478 14.2734 10.1258 15.2111 11.7343 15.81L12.2393 16.0025L14.6777 13.5633L17.5418 16.4275L16.0768 17.8917ZM11.6668 2.16667V0.5C13.8762 0.502426 15.9944 1.38118 17.5567 2.94346C19.119 4.50573 19.9977 6.62394 20.0002 8.83333H18.3335C18.3315 7.06583 17.6285 5.37129 16.3787 4.12148C15.1289 2.87167 13.4343 2.16865 11.6668 2.16667ZM11.6668 5.5V3.83333C12.9925 3.83466 14.2635 4.36187 15.2009 5.29926C16.1383 6.23666 16.6655 7.50766 16.6668 8.83333H15.0002C15.0002 7.94928 14.649 7.10143 14.0239 6.47631C13.3987 5.85119 12.5509 5.5 11.6668 5.5Z" fill="#1D63DC"/>
</g>
<defs>
<clipPath id="clip0_86_14782">
<rect width="20" height="20" fill="white" transform="translate(0 0.5)"/>
</clipPath>
</defs>
</svg>
