<svg width="20" height="21" viewBox="0 0 20 21" fill="none" xmlns="http://www.w3.org/2000/svg">
<g id="briefcase" clip-path="url(#clip0_2057_55)">
<g id="01 align center">
<path id="Vector" d="M17.5 3.83333H15V2.16667C15 1.72464 14.8244 1.30072 14.5118 0.988155C14.1993 0.675595 13.7754 0.5 13.3333 0.5H6.66667C6.22464 0.5 5.80072 0.675595 5.48816 0.988155C5.17559 1.30072 5 1.72464 5 2.16667V3.83333H2.5C1.83696 3.83333 1.20107 4.09673 0.732233 4.56557C0.263392 5.03441 0 5.67029 0 6.33333L0 20.5H20V6.33333C20 5.67029 19.7366 5.03441 19.2678 4.56557C18.7989 4.09673 18.163 3.83333 17.5 3.83333ZM6.66667 2.16667H13.3333V3.83333H6.66667V2.16667ZM2.5 5.5H17.5C17.721 5.5 17.933 5.5878 18.0893 5.74408C18.2455 5.90036 18.3333 6.11232 18.3333 6.33333V10.5H1.66667V6.33333C1.66667 6.11232 1.75446 5.90036 1.91074 5.74408C2.06702 5.5878 2.27899 5.5 2.5 5.5ZM1.66667 18.8333V12.1667H9.16667V13.8333H10.8333V12.1667H18.3333V18.8333H1.66667Z" fill="#F09643"/>
</g>
</g>
<defs>
<clipPath id="clip0_2057_55">
<rect width="20" height="20" fill="white" transform="translate(0 0.5)"/>
</clipPath>
</defs>
</svg>
