<svg width="16" height="16" viewBox="0 0 16 16" fill="none" xmlns="http://www.w3.org/2000/svg">
<g opacity="0.5" clip-path="url(#clip0_71_111)">
<path d="M15.8908 5.86272C15.7544 5.42865 15.482 5.04999 15.1138 4.78274C14.7455 4.51549 14.3011 4.37383 13.8461 4.37872H10.9335L10.0488 1.62138C9.90968 1.18736 9.63631 0.808727 9.26811 0.540094C8.89991 0.271462 8.45591 0.126709 8.00013 0.126709C7.54435 0.126709 7.10035 0.271462 6.73215 0.540094C6.36395 0.808727 6.09058 1.18736 5.95146 1.62138L5.0668 4.37872H2.15413C1.70062 4.37936 1.25892 4.52331 0.892115 4.78999C0.525307 5.05667 0.252156 5.43244 0.111676 5.86364C-0.0288034 6.29484 -0.0294251 6.75941 0.1099 7.19098C0.249224 7.62255 0.521369 7.99906 0.887462 8.26672L3.25813 10.0001L2.3568 12.7914C2.21114 13.2243 2.20929 13.6927 2.35153 14.1268C2.49378 14.5608 2.77249 14.9373 3.14613 15.2001C3.51336 15.4712 3.95839 15.6165 4.4149 15.6142C4.87141 15.612 5.31496 15.4622 5.67946 15.1874L8.00013 13.4794L10.3215 15.1854C10.688 15.455 11.1307 15.6015 11.5857 15.6037C12.0408 15.6059 12.4848 15.4638 12.854 15.1977C13.2232 14.9317 13.4985 14.5554 13.6403 14.123C13.7822 13.6907 13.7833 13.2244 13.6435 12.7914L12.7421 10.0001L15.1155 8.26672C15.4857 8.00242 15.7611 7.62592 15.9007 7.19295C16.0404 6.75998 16.0369 6.29356 15.8908 5.86272ZM14.3288 7.19005L11.5661 9.20938C11.4527 9.29216 11.3682 9.40867 11.3249 9.54227C11.2815 9.67588 11.2815 9.81976 11.3248 9.95339L12.3748 13.2001C12.4279 13.3647 12.4275 13.542 12.3735 13.7064C12.3195 13.8708 12.2148 14.0138 12.0744 14.115C11.934 14.2161 11.7652 14.2701 11.5921 14.2692C11.4191 14.2683 11.2508 14.2126 11.1115 14.1101L8.3948 12.1101C8.28037 12.026 8.1421 11.9807 8.00013 11.9807C7.85815 11.9807 7.71989 12.026 7.60546 12.1101L4.8888 14.1101C4.74952 14.214 4.58075 14.2709 4.40697 14.2725C4.23319 14.274 4.06342 14.2202 3.92228 14.1188C3.78114 14.0174 3.67596 13.8737 3.62199 13.7085C3.56802 13.5433 3.56807 13.3652 3.62213 13.2001L4.67546 9.95339C4.71874 9.81976 4.71871 9.67588 4.67537 9.54227C4.63203 9.40867 4.5476 9.29216 4.43413 9.20938L1.67146 7.19005C1.53233 7.08818 1.42895 6.94495 1.37609 6.78081C1.32323 6.61668 1.32359 6.44004 1.37712 6.27612C1.43065 6.1122 1.53461 5.96939 1.67416 5.86809C1.8137 5.76678 1.98169 5.71217 2.15413 5.71205H5.55413C5.69527 5.71205 5.83277 5.66725 5.94683 5.5841C6.06088 5.50096 6.14561 5.38376 6.1888 5.24938L7.22213 2.02872C7.27517 1.86391 7.37914 1.72018 7.51906 1.61822C7.65899 1.51626 7.82766 1.46132 8.0008 1.46132C8.17393 1.46132 8.3426 1.51626 8.48253 1.61822C8.62245 1.72018 8.72642 1.86391 8.77946 2.02872L9.8128 5.24938C9.85599 5.38376 9.94071 5.50096 10.0548 5.5841C10.1688 5.66725 10.3063 5.71205 10.4475 5.71205H13.8475C14.0199 5.71217 14.1879 5.76678 14.3274 5.86809C14.467 5.96939 14.5709 6.1122 14.6245 6.27612C14.678 6.44004 14.6784 6.61668 14.6255 6.78081C14.5726 6.94495 14.4693 7.08818 14.3301 7.19005H14.3288Z" fill="#282929"/>
</g>
<defs>
<clipPath id="clip0_71_111">
<rect width="16" height="16" fill="white"/>
</clipPath>
</defs>
</svg>
