<svg width="7" height="13" viewBox="0 0 7 13" fill="none" xmlns="http://www.w3.org/2000/svg">
<g id="caret-down 4" opacity="0.3" clip-path="url(#clip0_86_13796)">
<path id="Vector" d="M0.498964 9.28441H5.9693C6.06607 9.28481 6.16055 9.31391 6.24078 9.368C6.32102 9.4221 6.38341 9.49878 6.42007 9.58833C6.45674 9.67789 6.46602 9.77631 6.44675 9.87114C6.42748 9.96597 6.38052 10.053 6.31181 10.1211L3.58153 12.8514C3.53605 12.8972 3.48193 12.9336 3.4223 12.9585C3.36268 12.9833 3.29873 12.9961 3.23413 12.9961C3.16954 12.9961 3.10559 12.9833 3.04596 12.9585C2.98634 12.9336 2.93222 12.8972 2.88673 12.8514L0.156456 10.1211C0.0877486 10.053 0.0407903 9.96597 0.0215193 9.87114C0.00224824 9.77631 0.0115298 9.67789 0.0481907 9.58833C0.0848515 9.49878 0.147245 9.4221 0.227482 9.368C0.307718 9.31391 0.402194 9.28481 0.498964 9.28441Z" fill="black"/>
<path id="Vector_2" d="M0.498964 3.71559H5.9693C6.06607 3.71519 6.16055 3.68609 6.24078 3.632C6.32102 3.5779 6.38341 3.50122 6.42007 3.41167C6.45674 3.32211 6.46602 3.22369 6.44675 3.12886C6.42748 3.03403 6.38052 2.94704 6.31181 2.87889L3.58153 0.148618C3.53605 0.102757 3.48193 0.0663564 3.4223 0.0415156C3.36268 0.0166745 3.29873 0.00388551 3.23413 0.00388551C3.16954 0.00388551 3.10559 0.0166745 3.04596 0.0415156C2.98634 0.0663564 2.93222 0.102757 2.88673 0.148618L0.156456 2.87889C0.0877486 2.94704 0.0407903 3.03403 0.0215193 3.12886C0.00224824 3.22369 0.0115298 3.32211 0.0481907 3.41167C0.0848515 3.50122 0.147245 3.5779 0.227482 3.632C0.307718 3.68609 0.402194 3.71519 0.498964 3.71559Z" fill="black"/>
</g>
<defs>
<clipPath id="clip0_86_13796">
<rect width="7" height="13" fill="white" transform="matrix(1 0 0 -1 0 13)"/>
</clipPath>
</defs>
</svg>
