<svg width="16" height="16" viewBox="0 0 16 16" fill="none" xmlns="http://www.w3.org/2000/svg">
<g id="up-right" opacity="0.5" clip-path="url(#clip0_86_13802)">
<path id="Vector" d="M16 2V6.66667C16 7.03467 15.702 7.33333 15.3333 7.33333C14.9647 7.33333 14.6667 7.03467 14.6667 6.66667V2.276L6.80467 10.138C6.67467 10.268 6.504 10.3333 6.33333 10.3333C6.16267 10.3333 5.992 10.268 5.862 10.138C5.60133 9.87733 5.60133 9.456 5.862 9.19533L13.724 1.33333H9.33333C8.96467 1.33333 8.66667 1.03467 8.66667 0.666667C8.66667 0.298667 8.96467 0 9.33333 0H14C15.1027 0 16 0.897333 16 2ZM15.3333 9.33333C14.9647 9.33333 14.6667 9.632 14.6667 10V12.6667C14.6667 13.7693 13.7693 14.6667 12.6667 14.6667H3.33333C2.23067 14.6667 1.33333 13.7693 1.33333 12.6667V3.33333C1.33333 2.23067 2.23067 1.33333 3.33333 1.33333H6C6.36867 1.33333 6.66667 1.03467 6.66667 0.666667C6.66667 0.298667 6.36867 0 6 0H3.33333C1.49533 0 0 1.49533 0 3.33333V12.6667C0 14.5047 1.49533 16 3.33333 16H12.6667C14.5047 16 16 14.5047 16 12.6667V10C16 9.632 15.702 9.33333 15.3333 9.33333Z" fill="#282929"/>
</g>
<defs>
<clipPath id="clip0_86_13802">
<rect width="16" height="16" fill="white"/>
</clipPath>
</defs>
</svg>
