<svg width="40" height="40" viewBox="0 0 40 40" fill="none" xmlns="http://www.w3.org/2000/svg">
<g id="user-salary">
<path id="Vector" d="M18.3333 0C12.8183 0 8.33325 4.485 8.33325 10C8.33325 15.515 12.8183 20 18.3333 20C23.8482 20 28.3333 15.515 28.3333 10C28.3333 4.485 23.8482 0 18.3333 0ZM18.3333 16.6667C14.6566 16.6667 11.6666 13.6767 11.6666 10C11.6666 6.32333 14.6566 3.33333 18.3333 3.33333C22.0099 3.33333 24.9999 6.32333 24.9999 10C24.9999 13.6767 22.0099 16.6667 18.3333 16.6667ZM23.2816 25.835C23.0516 26.7283 22.1366 27.2633 21.2516 27.0333C20.3049 26.79 19.3216 26.6667 18.3333 26.6667C11.9016 26.6667 6.66658 31.9 6.66658 38.3333C6.66658 39.2533 5.92159 40 4.99992 40C4.07825 40 3.33325 39.2533 3.33325 38.3333C3.33325 30.0633 10.0616 23.3333 18.3333 23.3333C19.6016 23.3333 20.8633 23.4917 22.0816 23.8067C22.9732 24.035 23.5099 24.945 23.2816 25.835Z" fill="#282929"/>
<path id="Vector_2" d="M39.9998 31.6666C39.9998 34.4233 37.7565 36.6666 34.9998 36.6666V38.3333C34.9998 39.2533 34.2548 40 33.3331 40C32.4115 40 31.6665 39.2533 31.6665 38.3333V36.6633H31.2165C29.4398 36.6633 27.7815 35.7066 26.8898 34.17C26.4281 33.3733 26.6998 32.3533 27.4965 31.8916C28.2931 31.4316 29.3131 31.7016 29.7731 32.4983C30.0715 33.0116 30.6231 33.33 31.2165 33.33L34.9998 33.3333C35.9181 33.3333 36.6648 32.585 36.6648 31.6666C36.6648 31.0366 36.2131 30.5033 35.5915 30.4L30.5231 29.555C28.2865 29.1833 26.6648 27.2666 26.6648 25C26.6648 22.2433 28.9081 20 31.6648 20V18.3333C31.6648 17.4133 32.4098 16.6666 33.3315 16.6666C34.2531 16.6666 34.9981 17.4133 34.9981 18.3333V20.005H35.4498C37.2215 20.005 38.8798 20.96 39.7731 22.4966C40.2365 23.2916 39.9665 24.3116 39.1715 24.775C38.3748 25.2383 37.3531 24.9666 36.8931 24.1716C36.5881 23.6516 36.0498 23.3383 35.4498 23.3383L31.6648 23.3333C30.7465 23.3333 29.9998 24.0816 29.9998 25C29.9998 25.63 30.4515 26.1633 31.0731 26.2666L36.1415 27.1116C38.3781 27.4833 39.9998 29.4 39.9998 31.6666Z" fill="#1D63DC"/>
</g>
</svg>
